#!OML:ASF H:\Terrain\Patient Classification 1\Walking\liu\liu.ASF
:FULLY-SPECIFIED
:DEGREES
209
root 9.35415 16.9264 -2.20185 4.7697 -0.625167 1.97639
lowerback -3.72095 -1.46737 -3.13737
upperback -0.623935 -1.87596 2.58984
thorax 1.63245 -0.963163 4.33722
lowerneck -23.0761 -3.56112 -11.0558
upperneck 23.1127 -3.83267 10.0165
head 11.8198 -1.41878 4.98663
rclavicle 9.31803e-015 -1.90833e-014
rhumerus -43.8354 13.3832 -87.3803
rradius 31.5862
rwrist -16.4139
rhand -29.9906 -27.3466
rfingers 7.12502
rthumb -3.30838 -57.3006
lclavicle 9.31803e-015 -1.90833e-014
lhumerus -22.7124 -12.5397 89.5485
lradius 22.2684
lwrist -3.80354
lhand -11.5554 -25.111
lfingers 7.12502
lthumb 14.4854 4.36337
rfemur -29.6756 -6.23346 20.8141
rtibia 66.9519
rfoot -12.2771 -9.95239
rtoes -15.4642
lfemur -12.8239 2.57806 -27.4984
ltibia 25.117
lfoot -15.7166 3.28598
ltoes -1.30145
210
root 9.36564 16.9118 -2.02818 4.54259 -0.391125 2.4575
lowerback -3.58061 -1.68917 -3.59588
upperback -0.568975 -2.15585 2.47493
thorax 1.65064 -1.10709 4.46439
lowerneck -22.9715 -3.35207 -10.9446
upperneck 23.1042 -3.57131 9.96235
head 11.7586 -1.30044 4.98936
rclavicle -2.71093e-014 3.02153e-014
rhumerus -44.7296 13.6257 -87.5087
rradius 31.6996
rwrist -16.6449
rhand -31.2934 -26.0406
rfingers 7.12502
rthumb -4.56641 -55.9714
lclavicle -2.71093e-014 3.02153e-014
lhumerus -21.7367 -13.3631 89.363
lradius 22.9622
lwrist -3.98473
lhand -11.5668 -25.4341
lfingers 7.12502
lthumb 14.4744 4.04106
rfemur -30.3614 -6.14091 20.3406
rtibia 65.6696
rfoot -13.2879 -9.40854
rtoes -16.1605
lfemur -11.391 2.38449 -28.0361
ltibia 24.2271
lfoot -15.832 3.17471
ltoes -0.097304
211
root 9.37607 16.8976 -1.84343 4.22101 -0.0155318 3.50755
lowerback -3.67183 -2.06715 -4.6817
upperback -0.254913 -2.60847 2.22619
thorax 2.11065 -1.35879 4.78457
lowerneck -23.162 -3.14053 -10.7372
upperneck 23.0559 -3.3196 9.95132
head 11.74 -1.16508 4.9914
rclavicle -1.53561e-014 2.22639e-014
rhumerus -45.0537 13.735 -87.5619
rradius 31.609
rwrist -16.3593
rhand -32.1075 -25.9584
rfingers 7.12502
rthumb -5.35255 -55.8708
lclavicle -1.53561e-014 2.22639e-014
lhumerus -20.51 -14.457 89.0718
lradius 23.8184
lwrist -3.28405
lhand -11.7917 -25.4576
lfingers 7.12502
lthumb 14.2577 4.03302
rfemur -30.8337 -6.3616 19.1683
rtibia 64.2282
rfoot -14.1548 -8.85209
rtoes -16.5166
lfemur -9.78771 2.2772 -29.2061
ltibia 23.4333
lfoot -16.073 2.87608
ltoes 0.752701
212
root 9.37214 16.8916 -1.67309 4.1304 0.52204 3.92503
lowerback -3.70979 -2.36847 -5.21962
upperback -0.106753 -2.98431 2.17884
thorax 2.35551 -1.56241 5.00994
lowerneck -23.2952 -3.09984 -10.7574
upperneck 23.0868 -3.27543 10.0683
head 11.7746 -1.1295 5.05053
rclavicle -1.06847e-014 1.35174e-014
rhumerus -45.154 12.9737 -87.0444
rradius 31.3913
rwrist -15.6935
rhand -31.1112 -26.5072
rfingers 7.12502
rthumb -4.39053 -56.4417
lclavicle -1.06847e-014 1.35174e-014
lhumerus -19.5683 -16.5683 88.9963
lradius 25.0777
lwrist -1.15269
lhand -12.0372 -24.9223
lfingers 7.12502
lthumb 14.0211 4.58484
rfemur -31.5678 -6.41241 18.8473
rtibia 62.5702
rfoot -14.5028 -9.00815
rtoes -15.8333
lfemur -8.60622 2.13808 -29.6172
ltibia 22.7355
lfoot -16.2662 2.7454
ltoes -0.348493
213
root 9.36028 16.8798 -1.52665 4.39468 0.894331 3.30793
lowerback -3.68889 -2.41034 -4.64974
upperback -0.289401 -3.07051 2.36281
thorax 2.14544 -1.59066 4.87848
lowerneck -23.234 -3.22598 -10.9496
upperneck 23.2835 -3.40806 10.0853
head 11.8596 -1.20802 5.0756
rclavicle -2.46493e-014 2.70347e-014
rhumerus -46.0142 12.4876 -86.7424
rradius 31.6994
rwrist -15.9828
rhand -29.9093 -27.064
rfingers 7.12502
rthumb -3.22984 -57.0193
lclavicle -2.46493e-014 2.70347e-014
lhumerus -18.9798 -19.6735 89.1083
lradius 26.2454
lwrist 1.16045
lhand -12.8299 -24.8704
lfingers 7.12502
lthumb 13.2572 4.68802
rfemur -32.7168 -5.84875 19.823
rtibia 60.6244
rfoot -14.7043 -9.8473
rtoes -14.8613
lfemur -8.0568 1.80203 -28.8325
ltibia 22.0054
lfoot -16.4383 2.70242
ltoes 0.418059
214
root 9.35636 16.8741 -1.36811 4.55973 1.27321 3.14545
lowerback -3.68628 -2.4652 -4.50677
upperback -0.389091 -3.15135 2.42085
thorax 2.04616 -1.62528 4.85514
lowerneck -23.097 -3.36701 -11.2473
upperneck 23.3816 -3.55417 10.2029
head 11.8986 -1.29017 5.15118
rclavicle 1.8487e-014 3.18055e-015
rhumerus -47.2678 13.0042 -87.1227
rradius 32.3064
rwrist -17.5799
rhand -30.8411 -26.0479
rfingers 7.12502
rthumb -4.12972 -55.9877
lclavicle 1.8487e-014 3.18055e-015
lhumerus -18.039 -21.4522 88.9109
lradius 27.1535
lwrist 2.15005
lhand -12.6372 -25.0532
lfingers 7.12502
lthumb 13.4429 4.49299
rfemur -33.5354 -5.40502 20.0467
rtibia 58.4974
rfoot -15.1237 -9.78455
rtoes -16.384
lfemur -7.31169 1.47877 -28.5738
ltibia 21.3338
lfoot -16.6734 2.37574
ltoes 2.21582
215
root 9.35767 16.8875 -1.20137 4.55284 1.87915 3.44091
lowerback -3.61535 -2.66211 -4.80792
upperback -0.348679 -3.40346 2.35428
thorax 2.09179 -1.75591 4.94106
lowerneck -22.7236 -3.42256 -11.542
upperneck 22.9878 -3.65615 10.6035
head 11.7037 -1.31635 5.32144
rclavicle -1.799e-014 1.11319e-014
rhumerus -47.7735 12.6656 -86.9141
rradius 32.1731
rwrist -17.8845
rhand -31.8075 -24.4897
rfingers 7.12502
rthumb -5.0629 -54.4092
lclavicle -1.799e-014 1.11319e-014
lhumerus -16.8556 -22.2359 88.4148
lradius 28.0586
lwrist 2.42796
lhand -12.02 -25.1849
lfingers 7.12502
lthumb 14.0377 4.32102
rfemur -33.9594 -5.19897 19.5589
rtibia 56.1758
rfoot -15.6259 -9.04416
rtoes -18.8307
lfemur -6.25296 1.36178 -28.8228
ltibia 20.6762
lfoot -16.8829 1.91118
ltoes 2.155
216
root 9.35519 16.8825 -1.03669 4.50238 2.54388 3.80105
lowerback -3.45342 -2.94095 -5.24971
upperback -0.354227 -3.76508 2.30851
thorax 2.06527 -1.93991 5.12607
lowerneck -22.3803 -3.3694 -11.5998
upperneck 22.6263 -3.61697 10.754
head 11.4989 -1.28941 5.37762
rclavicle -2.52953e-014 -3.97569e-014
rhumerus -47.9556 12.1633 -86.2455
rradius 31.6619
rwrist -16.7824
rhand -30.7022 -23.9533
rfingers 7.12502
rthumb -3.99553 -53.8955
lclavicle -2.52953e-014 -3.97569e-014
lhumerus -15.902 -23.2013 87.9816
lradius 28.9587
lwrist 2.89959
lhand -12.6782 -25.2878
lfingers 7.12502
lthumb 13.4034 4.26099
rfemur -34.2386 -5.07456 19.0559
rtibia 53.6683
rfoot -15.9594 -8.7301
rtoes -18.7871
lfemur -5.08 1.27019 -29.1149
ltibia 19.8338
lfoot -17.0102 1.63554
ltoes 1.11085
217
root 9.34843 16.8746 -0.86406 4.64897 2.90805 3.75414
lowerback -3.57142 -3.13478 -5.35718
upperback -0.383375 -4.01678 2.42247
thorax 2.14965 -2.06943 5.28271
lowerneck -22.5964 -3.31543 -11.4002
upperneck 22.826 -3.50754 10.4221
head 11.5904 -1.26072 5.24256
rclavicle -2.88735e-014 -1.74931e-014
rhumerus -48.3887 12.2438 -85.9695
rradius 31.5171
rwrist -16.3956
rhand -29.7909 -23.2325
rfingers 7.12502
rthumb -3.11556 -53.1895
lclavicle -2.88735e-014 -1.74931e-014
lhumerus -14.9763 -24.3029 87.6044
lradius 29.948
lwrist 3.99801
lhand -13.391 -25.0569
lfingers 7.12502
lthumb 12.7163 4.53596
rfemur -34.6542 -4.69821 19.0612
rtibia 50.9808
rfoot -14.8705 -9.15645
rtoes -23.8661
lfemur -4.0613 0.8687 -28.9706
ltibia 18.8071
lfoot -17.0647 1.67955
ltoes 0.998303
218
root 9.33491 16.8905 -0.703499 5.06748 3.00781 3.07437
lowerback -3.89803 -3.19584 -4.81546
upperback -0.455415 -4.11143 2.65964
thorax 2.25009 -2.11414 5.20211
lowerneck -23.045 -3.32406 -11.1674
upperneck 23.0999 -3.49636 10.1552
head 11.77 -1.26112 5.11594
rclavicle -4.57205e-014 1.82882e-014
rhumerus -48.9858 12.0755 -85.921
rradius 31.5032
rwrist -16.4029
rhand -29.3432 -22.8064
rfingers 7.12502
rthumb -2.68314 -52.7693
lclavicle -4.57205e-014 1.82882e-014
lhumerus -13.9601 -25.0957 87.089
lradius 30.9138
lwrist 4.78243
lhand -13.3617 -25.0291
lfingers 7.12502
lthumb 12.7445 4.56192
rfemur -35.3865 -3.54252 19.6873
rtibia 48.143
rfoot -16.1456 -9.3501
rtoes -18.8752
lfemur -3.40308 0.186954 -28.1396
ltibia 17.712
lfoot -17.0518 2.04771
ltoes 1.6477
219
root 9.31878 16.9015 -0.544274 5.20892 3.00396 2.89446
lowerback -3.89144 -3.23331 -4.79965
upperback -0.533025 -4.16329 2.68581
thorax 2.17348 -2.13624 5.21945
lowerneck -22.9024 -3.29756 -11.0455
upperneck 23.0039 -3.51376 10.1558
head 11.7054 -1.26008 5.08699
rclavicle -3.27995e-014 9.54166e-015
rhumerus -49.8304 11.8293 -85.8863
rradius 31.5223
rwrist -16.0316
rhand -28.4273 -23.3424
rfingers 7.12502
rthumb -1.79857 -53.3146
lclavicle -3.27995e-014 9.54166e-015
lhumerus -13.0987 -25.6837 86.4718
lradius 31.7952
lwrist 5.36902
lhand -13.1579 -25.322
lfingers 7.12502
lthumb 12.941 4.2567
rfemur -35.8575 -2.10103 19.5631
rtibia 45.3309
rfoot -17.107 -9.65136
rtoes -18.4778
lfemur -2.36324 0.357233 -27.807
ltibia 16.5606
lfoot -16.9755 1.95155
ltoes 1.50124
220
root 9.30819 16.8919 -0.368828 5.15009 3.19896 3.36458
lowerback -3.77499 -3.33403 -5.34115
upperback -0.530545 -4.27626 2.48873
thorax 2.14971 -2.19577 5.31705
lowerneck -22.5593 -3.29072 -11.1599
upperneck 22.7568 -3.56761 10.4502
head 11.5606 -1.26303 5.19892
rclavicle 1.78906e-014 1.11319e-014
rhumerus -50.413 11.1245 -85.4931
rradius 31.5433
rwrist -15.667
rhand -27.7621 -23.8785
rfingers 7.12502
rthumb -1.15612 -53.8551
lclavicle 1.78906e-014 1.11319e-014
lhumerus -12.1291 -26.6529 85.698
lradius 32.6805
lwrist 6.57473
lhand -12.9977 -25.4698
lfingers 7.12502
lthumb 13.0954 4.09902
rfemur -35.9987 -1.27053 18.6669
rtibia 42.592
rfoot -17.6789 -9.45321
rtoes -17.3225
lfemur -0.91097 0.968215 -28.1571
ltibia 15.2466
lfoot -16.6863 1.31829
ltoes 0.951719
